<?xml version="1.0" encoding="UTF-8" standalone="no"?>
<svg
   width="612pt"
   height="612pt"
   viewBox="0 0 612 612"
   version="1.1"
   id="svg114"
   sodipodi:docname="logo.svg"
   inkscape:version="1.2 (dc2aedaf03, 2022-05-15)"
   xmlns:inkscape="http://www.inkscape.org/namespaces/inkscape"
   xmlns:sodipodi="http://sodipodi.sourceforge.net/DTD/sodipodi-0.dtd"
   xmlns="http://www.w3.org/2000/svg"
   xmlns:svg="http://www.w3.org/2000/svg">
  <defs
     id="defs118" />
  <sodipodi:namedview
     id="namedview116"
     pagecolor="#ffffff"
     bordercolor="#000000"
     borderopacity="0.25"
     inkscape:showpageshadow="2"
     inkscape:pageopacity="0.0"
     inkscape:pagecheckerboard="0"
     inkscape:deskcolor="#d1d1d1"
     inkscape:document-units="pt"
     showgrid="false"
     inkscape:zoom="1.0477941"
     inkscape:cx="404.65965"
     inkscape:cy="407.52281"
     inkscape:window-width="2400"
     inkscape:window-height="1284"
     inkscape:window-x="3991"
     inkscape:window-y="-9"
     inkscape:window-maximized="1"
     inkscape:current-layer="svg114" />
  <g
     id="#19171bff"
     transform="matrix(0.43703726,0,0,0.43703726,-6.7304297,164.35226)"
     inkscape:export-filename="logo.png"
     inkscape:export-xdpi="96"
     inkscape:export-ydpi="96">
    <path
       fill="#19171b"
       opacity="1"
       d="m 288.52,114.72 c 25.07,-2.26 50.6,0.36 74.62,7.94 53.63,16.49 98.88,57.86 120.13,109.79 16.41,39.05 19.06,83.63 7.74,124.43 -10.72,38.97 -34.14,74.34 -65.89,99.37 -30.59,24.52 -68.92,39.21 -108.08,41.32 -40.35,2.49 -81.38,-8.35 -115.22,-30.45 -24.19,-15.59 -44.72,-36.77 -59.74,-61.29 -16.53,-26.99 -26.27,-58.13 -27.87,-89.74 -2.1,-37.62 7.25,-75.78 26.61,-108.12 25.68,-43.34 68.92,-75.98 117.88,-88.16 9.78,-2.49 19.76,-4.24 29.82,-5.09 m -90.05,43.57 c -13.85,10.02 -26.11,22.14 -36.74,35.5 -26.48,34.15 -40.86,77.86 -38.07,121.11 32.35,-8.28 58.87,-36.09 64.81,-69.07 1.51,-6.27 0.8,-12.73 1.19,-19.09 2.73,0.16 5.47,0.15 8.19,-0.04 0.1,1.73 0.21,3.46 0.3,5.19 3.11,-0.02 6.22,-0.01 9.32,-0.01 0.04,-1.71 0.08,-3.41 0.14,-5.12 2.76,0.03 5.52,0.04 8.29,0.07 -0.94,16.25 3.25,32.63 11.45,46.66 11.52,19.74 30.82,34.79 52.82,41.01 18.44,5.43 38.58,4.76 56.65,-1.74 21.43,-7.6 39.88,-23.58 49.94,-44.03 6.65,-12.89 9.7,-27.52 8.92,-41.99 2.8,0.1 5.61,0.11 8.42,0.03 0.02,1.72 0.05,3.44 0.09,5.16 3.22,-0.06 6.45,-0.09 9.67,-0.09 -0.02,-1.68 -0.04,-3.36 -0.06,-5.03 2.84,0.07 5.68,0.02 8.52,-0.07 -1.55,22.53 7.33,45.08 22.41,61.66 11.51,12.81 26.84,21.88 43.36,26.59 1.73,-23.24 -1.98,-46.8 -9.54,-68.79 -15.42,-44.84 -49.1,-83 -91.63,-103.95 -26.21,-13.12 -55.68,-19.65 -84.97,-18.94 -37,0.64 -73.65,13.12 -103.48,34.98 m 205.71,81.25 c -0.09,6.31 -0.08,12.61 0,18.92 3.2,0 6.41,-0.01 9.63,0.01 0.06,-6.31 0.06,-12.62 0,-18.92 -3.21,-0.06 -6.42,-0.06 -9.63,-0.01 m -206.34,0.04 c 0.24,6.31 -0.17,12.62 0.28,18.92 3.14,-0.04 6.28,-0.04 9.42,-0.05 -0.05,-6.31 -0.06,-12.61 0.01,-18.91 -3.24,-0.03 -6.48,-0.06 -9.71,0.04 m 0.03,26.53 c 0.07,6.25 0.09,12.51 -0.02,18.77 3.25,0.07 6.51,0.07 9.76,0.05 -0.17,-6.28 -0.15,-12.56 -0.01,-18.84 -3.25,-0.01 -6.49,-0.03 -9.73,0.02 m 206.23,0.03 c -0.01,6.23 0.08,12.47 -0.02,18.7 3.27,0.16 6.56,0.14 9.84,-0.03 -0.11,-6.21 -0.11,-12.42 0,-18.63 -3.27,-0.17 -6.55,-0.15 -9.82,-0.04 m -224.32,18.72 c -0.57,0.99 -1.56,1.91 -1.47,3.15 -0.04,16.54 -0.03,33.09 -0.01,49.63 3.73,0.07 7.47,0.09 11.21,0.01 0,-23.27 0.07,-46.54 -0.06,-69.82 -2.47,6.06 -5.82,11.75 -9.67,17.03 m 242.68,-17.1 c -0.37,23.31 -0.14,46.63 -0.12,69.94 3.68,-0.01 7.35,0.03 11.03,-0.08 -0.1,-16.85 0.04,-33.7 -0.07,-50.55 -3.81,-6.29 -8.33,-12.29 -10.84,-19.31 m -206.6,6.2 c 0.08,21.25 -0.04,42.49 0.06,63.73 3.47,0.01 6.94,0 10.41,-0.02 -0.05,-17.28 -0.04,-34.55 0,-51.83 -3.71,-5.43 -7.82,-10.88 -9.72,-17.26 -0.42,1.77 -0.83,3.55 -0.75,5.38 m 171.66,8.67 c -1.07,1.62 -2.64,3.19 -2.3,5.31 0.05,16.59 -0.05,33.18 0.06,49.78 3.47,-0.08 6.94,-0.02 10.42,-0.03 -0.06,-23.2 -0.03,-46.4 -0.02,-69.59 -2.37,5.02 -4.92,10 -8.16,14.53 m -189.37,9.9 c -0.42,6.35 -0.24,12.72 -0.2,19.08 3.17,-0.08 6.34,-0.07 9.51,-0.02 0.16,-6.32 -0.01,-12.64 0.06,-18.95 -3.13,-0.01 -6.25,0 -9.37,-0.11 m 206.02,0.01 c -0.1,6.36 -0.01,12.72 -0.03,19.07 3.23,-0.09 6.46,-0.08 9.7,0 -0.02,-6.35 0.05,-12.7 -0.02,-19.05 -3.22,0.1 -6.44,0.07 -9.65,-0.02 m -37.56,12.38 c -0.36,10.92 -0.12,21.85 -0.12,32.78 3.44,-0.01 6.89,0.01 10.34,-0.05 0.05,-13.96 -0.02,-27.92 0.05,-41.88 -3.2,3.28 -6.5,6.52 -10.27,9.15 m -207.08,0.86 c -0.12,10.63 -0.05,21.27 -0.04,31.9 3.49,0.03 6.97,0.01 10.46,-0.02 -0.11,-10.56 -0.01,-21.11 -0.05,-31.67 -0.05,-3.19 0.22,-6.41 -0.46,-9.55 -2.29,4.01 -6.51,6.37 -9.91,9.34 m 75.23,-9.92 c -0.17,13.92 0.08,27.85 -0.14,41.77 3.5,0.1 7.01,0.1 10.51,0.04 -0.01,-10.25 -0.01,-20.5 0.04,-30.74 0.26,-1.41 -0.77,-2.53 -1.82,-3.26 -3.14,-2.28 -5.77,-5.16 -8.59,-7.81 m 206.95,0.56 c -0.14,13.72 0.03,27.45 -0.09,41.18 3.51,0.1 7.03,0.16 10.55,0.12 0.02,-10.67 -0.01,-21.33 -0.02,-32 -3.62,-2.94 -7.18,-5.97 -10.44,-9.3 m -188.17,14.6 c -0.04,8.89 0.03,17.77 -0.05,26.66 3.51,0.01 7.02,0.01 10.53,0 0.08,-6.98 -0.07,-13.95 0.09,-20.93 -3.49,-1.97 -7.15,-3.63 -10.57,-5.73 m 94.07,5.51 c 0.01,7.05 0.01,14.1 -0.01,21.15 3.48,0.09 6.96,0.02 10.45,-0.06 0.09,-8.87 0.01,-17.74 0.06,-26.61 -3.46,1.92 -6.86,3.96 -10.5,5.52 m -206.11,0.12 c 0.04,7.01 0.07,14.01 -0.01,21.02 3.23,0.01 6.45,0.03 9.68,0.04 -0.08,-8.69 -0.09,-17.37 -0.03,-26.05 -3.21,1.67 -6.38,3.42 -9.64,4.99 m 318.98,-5.11 c -0.02,8.7 0.06,17.4 -0.04,26.11 3.49,0.05 6.98,0.02 10.47,0.06 0.01,-6.96 0.01,-13.92 0.02,-20.89 -3.62,-1.49 -7.01,-3.44 -10.45,-5.28 m -262.67,7.75 c 0.22,6.12 0.03,12.25 0.13,18.38 3.2,0.02 6.41,0.03 9.61,0.02 -0.02,-6.15 -0.17,-12.3 0.09,-18.45 -3.28,-0.13 -6.56,-0.17 -9.83,0.05 m 206.32,-0.17 c -0.01,6.19 0.02,12.37 -0.02,18.56 3.24,0.06 6.49,0.02 9.74,-0.05 -0.04,-6.16 0.06,-12.32 -0.06,-18.48 -3.23,-0.02 -6.45,0 -9.66,-0.03 m -131.82,0.94 c 0,5.87 0.07,11.75 -0.05,17.62 3.52,0.01 7.04,0 10.56,0.02 -0.07,-4.93 0.13,-9.86 -0.14,-14.78 -3.52,-0.73 -6.94,-1.82 -10.37,-2.86 m 207.02,0.15 c 0.07,5.82 -0.06,11.65 0.04,17.47 2.07,0 4.15,0 6.24,0.02 0.88,-4.92 1.61,-9.87 2.13,-14.84 -2.82,-0.84 -5.62,-1.73 -8.41,-2.65 m -355.19,2.5 c 0.34,5.01 1.23,9.96 1.98,14.93 2.37,0.05 4.74,0.05 7.11,0.03 -0.06,-5.88 0,-11.75 -0.06,-17.62 -2.97,1 -5.96,1.98 -9.03,2.66 m 204.68,0.33 c -0.01,4.89 0,9.78 -0.04,14.67 3.49,-0.03 6.99,-0.03 10.49,-0.03 -0.04,-5.88 -0.01,-11.76 -0.03,-17.63 -3.45,1.08 -6.89,2.2 -10.42,2.99 m -37.57,1.56 c -0.16,4.36 -0.12,8.72 -0.11,13.08 3.48,0.05 6.96,0.03 10.44,-0.04 0.06,-4.02 0.05,-8.04 0.02,-12.06 -3.47,-0.03 -6.93,-0.39 -10.35,-0.98 m 18.91,0.97 c -0.21,4.02 -0.08,8.06 -0.21,12.09 3.49,0.04 6.98,0.05 10.47,0.01 0.03,-4.32 0.03,-8.65 0,-12.98 -3.41,0.46 -6.83,0.8 -10.26,0.88 m -182.31,20.54 c 0.39,1.46 0.79,2.92 1.22,4.38 1.36,-0.04 2.73,-0.07 4.09,-0.1 0.04,-1.41 0.08,-2.83 0.13,-4.23 -1.82,-0.05 -3.63,-0.06 -5.44,-0.05 m 13.65,0.06 c 0.01,1.4 0.03,2.81 0.05,4.22 3.2,0.03 6.4,0.01 9.6,0 -0.03,-1.43 -0.06,-2.85 -0.08,-4.27 -3.19,-0.06 -6.38,-0.05 -9.57,0.05 m 17.88,0.08 c 0.06,1.39 0.12,2.79 0.19,4.19 3.43,-0.05 6.86,-0.03 10.3,-0.07 0.01,-1.42 0.03,-2.82 0.06,-4.23 -3.52,-0.06 -7.04,-0.15 -10.55,0.11 m 18.84,-0.12 c 0.02,1.42 0.05,2.86 0.09,4.29 3.74,-0.04 7.48,-0.03 11.22,-0.01 0,-1.44 0.01,-2.88 0.02,-4.31 -3.78,-0.02 -7.56,-0.04 -11.33,0.03 m 19.68,0.03 c -0.02,1.38 -0.04,2.77 -0.07,4.16 3.25,0.1 6.51,0.09 9.77,0.02 -0.04,-1.43 -0.06,-2.85 -0.05,-4.27 -3.22,0.02 -6.44,0.01 -9.65,0.09 m 18,-0.05 c 0,1.42 0.01,2.85 0.02,4.28 3.48,0.03 6.96,0.03 10.44,-0.02 -0.01,-1.41 -0.01,-2.82 0.01,-4.21 -3.49,-0.1 -6.98,-0.09 -10.47,-0.05 m 18.77,-0.02 c 0.02,1.43 0.03,2.86 0.03,4.31 3.49,-0.01 6.99,-0.02 10.48,-0.01 -0.01,-1.44 0,-2.87 0.02,-4.3 -3.51,-0.01 -7.02,-0.01 -10.53,0 m 18.83,0.08 c 0.01,1.4 0.03,2.81 0.05,4.22 3.49,0.02 6.98,0.02 10.48,0 0,-1.43 0,-2.85 0.01,-4.27 -3.52,-0.05 -7.03,-0.06 -10.54,0.05 m 18.81,-0.09 c -0.01,1.42 -0.01,2.85 -0.02,4.29 3.48,0.02 6.96,0.01 10.44,0.04 0.06,-1.41 0.12,-2.8 0.18,-4.2 -3.54,-0.16 -7.07,-0.12 -10.6,-0.13 m 18.79,0.05 c 0.02,1.42 0.05,2.85 0.08,4.28 3.47,-0.02 6.95,-0.02 10.42,0.02 0.01,-1.45 0.02,-2.9 0.03,-4.34 -3.51,-0.02 -7.02,0.02 -10.53,0.04 m 18.97,-0.01 c -0.07,1.4 -0.14,2.8 -0.21,4.21 3.49,0.1 6.99,0.08 10.48,0.08 0.07,-1.4 0.12,-2.81 0.18,-4.21 -3.49,-0.17 -6.97,-0.12 -10.45,-0.08 m 18.72,0.04 c 0,1.42 0,2.84 -0.01,4.26 3.49,-0.06 6.98,-0.02 10.47,0 0,-1.42 0,-2.83 0.02,-4.23 -3.5,-0.13 -6.99,-0.14 -10.48,-0.03 m 18.83,-0.03 c 0.01,1.42 0.01,2.85 0.01,4.27 3.34,0.01 6.69,-0.04 10.03,0.13 0.23,-1.44 0.43,-2.89 0.6,-4.33 -3.55,-0.18 -7.09,-0.12 -10.64,-0.07 m 18.81,0.02 c 0,1.42 0,2.84 0,4.26 3.45,-0.02 6.91,0 10.37,-0.02 0.04,-1.41 0.07,-2.83 0.11,-4.23 -3.49,-0.1 -6.99,-0.1 -10.48,-0.01 m 18.82,-0.08 c 0,1.43 0.02,2.87 0.05,4.32 3.45,0.03 6.9,0.04 10.35,-0.03 0.01,-1.43 0.02,-2.86 0.04,-4.28 -3.48,0.05 -6.96,0 -10.44,-0.01 m 18.81,0.04 c 0.03,1.43 0.07,2.87 0.13,4.31 3.19,-0.01 6.38,-0.03 9.58,0.01 0.03,-1.45 0.05,-2.9 0.08,-4.34 -3.27,-0.02 -6.53,0.01 -9.79,0.02 m 18.17,0.06 c 0.03,1.4 0.07,2.81 0.12,4.23 3.67,0.01 7.35,0.02 11.03,-0.05 -0.02,-1.41 -0.03,-2.82 -0.02,-4.22 -3.72,-0.06 -7.43,-0.07 -11.13,0.04 m 19.42,-0.07 c 0.01,1.41 0.01,2.83 0.02,4.25 3.5,0.09 7,0.11 10.5,0 -0.01,-1.42 0,-2.84 0.01,-4.25 -3.51,-0.02 -7.02,-0.05 -10.53,0 m 18.81,0.02 c 0.01,1.42 0.01,2.86 0.02,4.29 3.46,-0.01 6.92,0.02 10.38,0.01 0.04,-1.44 0.08,-2.88 0.11,-4.31 -3.51,-0.06 -7.01,-0.01 -10.51,0.01 m 18.86,0.05 c 0.01,1.45 0.05,2.9 0.09,4.36 1.21,-0.09 2.42,-0.19 3.64,-0.29 0.28,-1.4 0.55,-2.81 0.84,-4.2 -1.53,0.04 -3.05,0.08 -4.57,0.13 M 131.2,358.8 c 2.61,9.24 6.4,18.09 10.49,26.76 0.57,0.81 0.71,2.25 1.89,2.44 3.4,0.81 6.83,1.68 9.91,3.39 6.22,3.2 11.33,8.65 18.37,10.13 5.85,1.2 12.05,0.94 17.68,-1.14 -0.06,-13.85 0.02,-27.71 -0.04,-41.56 -19.43,0.05 -38.87,0.07 -58.3,-0.02 m 66.74,-0.03 c -0.11,11.97 0.1,23.95 -0.11,35.92 3.52,-0.88 6.27,-3.82 9.78,-4.98 -0.19,-10.26 -0.13,-20.54 -0.03,-30.8 -3.21,-0.08 -6.43,-0.02 -9.64,-0.14 m 17.98,0.08 c -0.04,9.61 -0.09,19.21 0.02,28.82 6.66,-0.55 13.58,-0.2 19.77,2.53 7.46,3.07 13.09,9.74 21.18,11.4 5.24,0.99 10.78,0.94 15.89,-0.72 7.11,-2.34 12.14,-8.44 19.2,-10.92 10.92,-4.12 24.02,-3.37 33.89,3.14 4.5,2.84 8.64,6.52 13.85,8.01 5.58,1.57 11.64,1.54 17.19,-0.1 6.47,-1.9 11.19,-7.05 17.16,-9.93 6.63,-3.42 14.29,-4.01 21.62,-3.44 -0.07,-9.62 0.04,-19.24 -0.06,-28.86 -59.9,0.17 -119.81,0.03 -179.71,0.07 m 188.2,-0.06 c 0.11,10.41 -0.18,20.83 0.15,31.23 3.52,1 6.38,3.38 9.57,5.07 0.02,-12.1 0.02,-24.21 -0.02,-36.31 -3.24,0.11 -6.47,0.1 -9.7,0.01 m 18.16,41.63 c 5.94,2.09 12.49,2.38 18.59,0.87 5.1,-1.41 9.3,-4.76 13.63,-7.65 4.3,-2.93 9.24,-4.97 14.42,-5.61 4.56,-9.47 8.83,-19.13 11.76,-29.24 -19.37,0.1 -38.73,0.13 -58.09,-0.02 -0.71,13.85 -0.1,27.77 -0.31,41.65 m -209.09,-3.04 c -5.78,1.4 -10.14,5.68 -15.15,8.6 -9,5.69 -20.48,6.45 -30.58,3.61 -6.77,-1.87 -11.97,-6.82 -17.99,-10.16 21.57,36.78 56.76,65.29 97.06,79.18 41.77,14.61 88.95,13.14 129.68,-4.19 35.9,-14.92 66.5,-41.8 86.46,-75.11 -6.37,3.41 -11.83,8.62 -18.99,10.47 -10.35,2.79 -22.1,1.61 -31.09,-4.49 -4.41,-2.8 -8.49,-6.4 -13.62,-7.78 -7.34,-1.96 -15.58,-1.55 -22.23,2.34 -5.29,3.15 -10.01,7.38 -15.95,9.32 -8.07,2.72 -17.08,2.73 -25.15,0.03 -5.6,-1.86 -10.15,-5.72 -15.06,-8.82 -6.93,-4.4 -15.77,-4.98 -23.54,-2.75 -7.04,2.21 -12.13,8.04 -18.91,10.79 -8.61,3.53 -18.56,3.69 -27.35,0.69 -5.65,-1.85 -10.16,-5.83 -15.15,-8.88 -6.61,-4.17 -14.99,-4.7 -22.44,-2.85 z"
       id="path111" />
  </g>
  <text
     xml:space="preserve"
     style="font-size:116.226px;font-family:'cream cake';-inkscape-font-specification:'cream cake';fill:#2b1100;fill-opacity:1;stroke-width:9.68549"
     x="206.86317"
     y="311.50421"
     id="text1011"><tspan
       sodipodi:role="line"
       id="tspan1009"
       x="206.86317"
       y="311.50421"
       style="fill:#aa4400;fill-opacity:1;stroke-width:9.68549"><tspan
   style="font-style:normal;font-variant:normal;font-weight:normal;font-stretch:normal;font-family:'Cream Cake';-inkscape-font-specification:'Cream Cake';fill:#aa4400"
   id="tspan1244">Películas</tspan> </tspan></text>
  <text
     xml:space="preserve"
     style="font-size:28.3093px;font-family:'cream cake';-inkscape-font-specification:'cream cake';fill:#000000;fill-opacity:1;stroke-width:2.35911"
     x="253.16591"
     y="335.48001"
     id="text1011-8"><tspan
       sodipodi:role="line"
       id="tspan1009-4"
       x="253.16591"
       y="335.48001"
       style="font-style:normal;font-variant:normal;font-weight:600;font-stretch:normal;font-family:Bahnschrift;-inkscape-font-specification:'Bahnschrift Semi-Bold';fill:#000000;fill-opacity:1;stroke-width:2.35911">SAN FRANCISCO</tspan></text>
</svg>
